<?xml version="1.0" encoding="utf-8"?>
<!-- Generator: Adobe Illustrator 25.4.1, SVG Export Plug-In . SVG Version: 6.00 Build 0)  -->
<svg version="1.1" id="Layer_1" xmlns="http://www.w3.org/2000/svg" xmlns:xlink="http://www.w3.org/1999/xlink" width="1000px" height="793px" x="0px" y="0px"
	 viewBox="0 0 1000 793" style="enable-background:new 0 0 1000 793;" xml:space="preserve">
<style type="text/css">
	.st0{fill:#F7941D;}
	.st1{fill:#F47B29;}
	.st2{fill:#581724;}
	.st3{fill:#A02A1D;}
</style>
<path class="st0" d="M622.6,550.4c-7.4,16.5-2.1,35.8,12.6,46.3c20.4,14.6,49.1,5.9,57.9-17.6c8.1-21.8,16.6-45.8,19.6-59.1
	c3-13.2,17.8-81.5,8.9-126.7c-6.1-30.9-27.2-107.2-90.5-147.3c-78.3-49.6-177.9-39.1-253.6,26.8c-55,48-90.9,115.6-98.5,185.5
	c-6.6,60.9,11,113.1,48.3,143.2c6.9,5.6,15.2,8.3,23.4,8.3c16.8,0,33.3-11.2,37.4-32.5c2.5-13-3.8-25.5-14-33.9
	c-16.9-13.7-24.7-42.6-21-77.2c5.5-51.5,32.3-101.5,73.3-137.2c50.2-43.8,114.9-51.6,164.7-20.1c31.8,20.2,50.4,64.3,57.3,98.9
	c3.6,18.4,0.1,58.5-8.4,95.4C636.9,516.9,629.4,535.2,622.6,550.4z"/>
<path class="st1" d="M261.8,657c16.8-12,20.7-35.2,8.7-52c-71.7-100.5-32.9-226.1,22.1-303.2c36.1-50.5,88.6-88.4,148-106.5
	C494,179,551.5,179.2,602.7,196c78.4,25.7,140.7,98.2,166.6,193.9c16.3,60.2,0.3,146.3-40.7,219.2c-10.1,17.9-3.7,40.7,14.2,50.8
	c5.8,3.2,12.1,4.8,18.2,4.8c13,0,25.7-6.8,32.5-19c39.9-70.9,73.4-180.5,47.7-275.3c-32.5-120-113-211.7-215.4-245.2
	c-65.6-21.5-139.2-21.9-207.1-1.1C343.9,147,277.5,194.8,232,258.6c-69.3,97-116.6,257.3-22.1,389.8
	C221.8,665.1,245.1,669,261.8,657z"/>
<path class="st2" d="M940.1,511.4c-20.6,0-37.3,16.7-37.3,37.3c0,23.3-5.2,34.3-15.4,56.3c-3.6,7.8-7.5,16.2-11.6,25.9
	c-8.7,20.9-24.5,49.6-50.4,67.3c-41.1,28.2-92.5,8.9-119.4-5.1c-48-24.9-88.8-62.1-135.5-110.4c-0.7-0.7-1.4-1.5-2.1-2.2
	c20.2-30.1,32.2-60.4,35.5-90.5c4.1-36.8-3.3-112.4-60.3-135.6c-30.5-12.4-63.8-5.2-89,19.2c-23.9,23.1-38.1,55.3-39.2,88.4
	c-1.5,46.6,24.1,87.3,53.1,121.2c-18,17.2-38.6,33.4-62.3,50.9c-6.6,4.9-13.1,9.8-19.6,14.7c-36,27.3-67,50.8-106.4,54.5
	c-40.5,3.8-83.5-9.4-115.2-35.3c-45.5-37.1-68.3-95.3-67.8-172.9c0.1-20.6-16.5-37.4-37-37.5c-0.1,0-0.2,0-0.2,0
	c-20.5,0-37.1,16.5-37.3,37.1c-0.6,99.8,32.3,179.8,95.2,231.1c47.2,38.6,108.9,57.5,169.3,51.8c60.6-5.7,105.2-39.5,144.5-69.3
	c6.2-4.7,12.4-9.4,18.7-14c22.1-16.2,46.3-34.6,69.4-56.8c44,45.3,92.9,91.2,151.9,121.8c35.7,18.5,71.5,27.8,105,27.8
	c33.3,0,64.4-9.1,91-27.4c32.4-22.2,59-56.9,77.1-100.2c3.6-8.6,7.1-16.1,10.3-23c11.5-24.7,22.4-48,22.4-87.8
	C977.4,528.1,960.7,511.4,940.1,511.4z M529.8,481.8c-1.5,13.3-6.1,27.2-13.9,41.6c-15.2-19.7-26.6-40.3-26-59
	c0.4-13.7,6.6-27.6,16.5-37.2c3.4-3.3,5.8-4.1,7.4-4.1c0.9,0,1.4,0.2,1.8,0.4C524.2,427.1,532.7,456,529.8,481.8z"/>
<g>
	<path class="st3" d="M515.5,423.6c-0.3-0.1-0.9-0.4-1.8-0.4c-1.5,0-3.9,0.7-7.4,4.1c-9.9,9.5-16,23.4-16.5,37.2
		c-0.6,18.7,10.7,39.3,26,59c7.7-14.4,12.4-28.3,13.9-41.6C532.7,456,524.2,427.1,515.5,423.6z"/>
	<circle class="st3" cx="72.4" cy="358.1" r="34.1"/>
	<path class="st3" d="M122,278.7c18.8,0,34.1-15.3,34.1-34.1c0-18.8-15.3-34.1-34.1-34.1s-34.1,15.3-34.1,34.1
		C87.9,263.4,103.2,278.7,122,278.7z"/>
	<path class="st3" d="M208.8,191.9c18.8,0,34.1-15.3,34.1-34.1c0-18.8-15.3-34.1-34.1-34.1c-18.8,0-34.1,15.3-34.1,34.1
		C174.7,176.6,190,191.9,208.8,191.9z"/>
	<circle class="st3" cx="315" cy="91.2" r="34.1"/>
	<circle class="st3" cx="409.9" cy="57.1" r="34.1"/>
	<circle class="st3" cx="509.1" cy="52" r="34.1"/>
	<path class="st3" d="M612.9,93.4c18.8,0,34.1-15.3,34.1-34.1c0-18.8-15.3-34.1-34.1-34.1c-18.8,0-34.1,15.3-34.1,34.1
		C578.8,78.2,594.1,93.4,612.9,93.4z"/>
	<path class="st3" d="M803.3,189.1c18.8,0,34.1-15.3,34.1-34.1c0-18.8-15.3-34.1-34.1-34.1c-18.8,0-34.1,15.3-34.1,34.1
		C769.2,173.8,784.5,189.1,803.3,189.1z"/>
	<circle class="st3" cx="877.7" cy="234" r="34.1"/>
	<path class="st3" d="M891.5,336.3c0,18.8,15.3,34.1,34.1,34.1c18.8,0,34.1-15.3,34.1-34.1c0-18.8-15.3-34.1-34.1-34.1
		C906.8,302.2,891.5,317.5,891.5,336.3z"/>
	<circle class="st3" cx="939.6" cy="435.5" r="34.1"/>
	<path class="st3" d="M700.9,120.4c17.1,7.9,37.4,0.5,45.3-16.6c7.9-17.1,0.5-37.4-16.6-45.3c-17.1-7.9-37.4-0.5-45.3,16.6
		C676.3,92.2,683.8,112.5,700.9,120.4z"/>
</g>
</svg>
