<?xml version="1.0" encoding="utf-8"?>
<!-- Generator: Adobe Illustrator 25.4.1, SVG Export Plug-In . SVG Version: 6.00 Build 0)  -->
<svg version="1.1" xmlns="http://www.w3.org/2000/svg" xmlns:xlink="http://www.w3.org/1999/xlink" width="204px" height="165px" x="0px" y="0px"
	 viewBox="0 0 204.5 164.6" style="enable-background:new 0 0 204.5 164.6;" xml:space="preserve">
<style type="text/css">
	.st0{fill:#F7941D;}
	.st1{fill:#F47B29;}
	.st2{fill:#581724;}
	.st3{fill:#A02A1D;}
</style>
<g id="Layer_2">
	<path class="st0" d="M115.3,101c-0.8,1.8-0.2,3.8,1.4,5c2.2,1.6,5.3,0.6,6.2-1.9c0.9-2.3,1.8-4.9,2.1-6.3c0.3-1.4,1.9-8.7,0.9-13.6
		c-0.7-3.3-2.9-11.5-9.7-15.8c-8.4-5.3-19.1-4.2-27.2,2.9c-5.9,5.1-9.8,12.4-10.6,19.9c-0.7,6.5,1.2,12.1,5.2,15.4
		c0.7,0.6,1.6,0.9,2.5,0.9c1.8,0,3.6-1.2,4-3.5c0.3-1.4-0.4-2.7-1.5-3.6c-1.8-1.5-2.7-4.6-2.3-8.3c0.6-5.5,3.5-10.9,7.9-14.7
		c5.4-4.7,12.3-5.5,17.7-2.2c3.4,2.2,5.4,6.9,6.1,10.6c0.4,2,0,6.3-0.9,10.2C116.9,97.5,116.1,99.4,115.3,101z"/>
	<path class="st1" d="M76.6,112.5c1.8-1.3,2.2-3.8,0.9-5.6c-7.7-10.8-3.5-24.3,2.4-32.5c3.9-5.4,9.5-9.5,15.9-11.4
		c5.7-1.8,11.9-1.7,17.4,0.1c8.4,2.8,15.1,10.5,17.9,20.8c1.7,6.5,0,15.7-4.4,23.5c-1.1,1.9-0.4,4.4,1.5,5.4c0.6,0.3,1.3,0.5,2,0.5
		c1.4,0,2.8-0.7,3.5-2c4.3-7.6,7.9-19.4,5.1-29.5c-3.5-12.9-12.1-22.7-23.1-26.3c-7-2.3-14.9-2.3-22.2-0.1c-8,2.5-15.2,7.6-20,14.4
		c-7.4,10.4-12.5,27.6-2.4,41.8C72.3,113.4,74.8,113.8,76.6,112.5z"/>
	<path class="st2" d="M149.4,96.9c-2.2,0-4,1.8-4,4c0,2.5-0.6,3.7-1.7,6c-0.4,0.8-0.8,1.7-1.2,2.8c-0.9,2.2-2.6,5.3-5.4,7.2
		c-4.4,3-9.9,1-12.8-0.5c-5.1-2.7-9.5-6.7-14.5-11.8c-0.1-0.1-0.2-0.2-0.2-0.2c2.2-3.2,3.4-6.5,3.8-9.7c0.4-3.9-0.3-12.1-6.5-14.5
		c-3.3-1.3-6.8-0.6-9.5,2.1c-2.6,2.5-4.1,5.9-4.2,9.5c-0.2,5,2.6,9.4,5.7,13c-1.9,1.8-4.1,3.6-6.7,5.5c-0.7,0.5-1.4,1-2.1,1.6
		c-3.9,2.9-7.2,5.5-11.4,5.8c-4.3,0.4-9-1-12.4-3.8c-4.9-4-7.3-10.2-7.3-18.6c0-2.2-1.8-4-4-4c0,0,0,0,0,0c-2.2,0-4,1.8-4,4
		c-0.1,10.7,3.5,19.3,10.2,24.8c5.1,4.1,11.7,6.2,18.2,5.6c6.5-0.6,11.3-4.2,15.5-7.4c0.7-0.5,1.3-1,2-1.5c2.4-1.7,5-3.7,7.4-6.1
		c4.7,4.9,10,9.8,16.3,13.1c3.8,2,7.7,3,11.3,3c3.6,0,6.9-1,9.8-2.9c3.5-2.4,6.3-6.1,8.3-10.8c0.4-0.9,0.8-1.7,1.1-2.5
		c1.2-2.6,2.4-5.2,2.4-9.4C153.4,98.7,151.6,96.9,149.4,96.9z M105.4,93.7c-0.2,1.4-0.7,2.9-1.5,4.5c-1.6-2.1-2.9-4.3-2.8-6.3
		c0-1.5,0.7-3,1.8-4c0.4-0.4,0.6-0.4,0.8-0.4c0.1,0,0.2,0,0.2,0C104.8,87.8,105.7,90.9,105.4,93.7z"/>
	<g>
		<path class="st3" d="M103.9,87.4c0,0-0.1,0-0.2,0c-0.2,0-0.4,0.1-0.8,0.4c-1.1,1-1.7,2.5-1.8,4c-0.1,2,1.2,4.2,2.8,6.3
			c0.8-1.5,1.3-3,1.5-4.5C105.7,90.9,104.8,87.8,103.9,87.4z"/>
		<circle class="st3" cx="56.3" cy="80.4" r="3.7"/>
		<path class="st3" d="M61.6,71.9c2,0,3.7-1.6,3.7-3.7c0-2-1.6-3.7-3.7-3.7S58,66.2,58,68.2C58,70.3,59.6,71.9,61.6,71.9z"/>
		<path class="st3" d="M70.9,62.6c2,0,3.7-1.6,3.7-3.7c0-2-1.6-3.7-3.7-3.7c-2,0-3.7,1.6-3.7,3.7C67.3,60.9,68.9,62.6,70.9,62.6z"/>
		<circle class="st3" cx="82.3" cy="51.8" r="3.7"/>
		<circle class="st3" cx="92.5" cy="48.1" r="3.7"/>
		<circle class="st3" cx="103.2" cy="47.6" r="3.7"/>
		<path class="st3" d="M114.3,52c2,0,3.7-1.6,3.7-3.7c0-2-1.6-3.7-3.7-3.7c-2,0-3.7,1.6-3.7,3.7C110.6,50.4,112.3,52,114.3,52z"/>
		<path class="st3" d="M134.7,62.3c2,0,3.7-1.6,3.7-3.7c0-2-1.6-3.7-3.7-3.7c-2,0-3.7,1.6-3.7,3.7C131.1,60.6,132.7,62.3,134.7,62.3
			z"/>
		<circle class="st3" cx="142.7" cy="67.1" r="3.7"/>
		<path class="st3" d="M144.2,78.1c0,2,1.6,3.7,3.7,3.7c2,0,3.7-1.6,3.7-3.7c0-2-1.6-3.7-3.7-3.7C145.8,74.4,144.2,76.1,144.2,78.1z
			"/>
		<circle class="st3" cx="149.4" cy="88.7" r="3.7"/>
		<path class="st3" d="M123.7,54.9c1.8,0.8,4,0.1,4.9-1.8c0.8-1.8,0.1-4-1.8-4.9c-1.8-0.8-4-0.1-4.9,1.8
			C121.1,51.9,121.9,54.1,123.7,54.9z"/>
	</g>
	<g>
		<path class="st2" d="M46.5,129.4c-0.3,0.9-0.1,1.7,0.4,2.4c0.2,0.3,0.5,0.6,0.8,0.8c0.3,0.2,0.6,0.3,0.9,0.4c0.3,0.1,0.7,0,1,0
			c0.3-0.1,0.7-0.2,1-0.4c0.3-0.2,0.6-0.5,0.8-0.8c0.2-0.3,0.3-0.6,0.4-0.9s0.1-0.7,0-1s-0.2-0.7-0.4-1c-0.5-0.7-1.2-1.1-2.1-1.2
			l2.5-1.7l0.2,0.2c0.3,0.2,0.6,0.5,0.9,0.7c0.2,0.2,0.5,0.5,0.6,0.8c0.4,0.6,0.6,1.2,0.8,1.8c0.1,0.7,0.2,1.3,0,2
			c-0.1,0.7-0.4,1.3-0.7,1.9c-0.4,0.6-0.9,1.1-1.5,1.5c-0.6,0.4-1.3,0.7-1.9,0.8c-0.7,0.1-1.3,0.1-2,0s-1.2-0.4-1.8-0.7
			s-1-0.8-1.4-1.4c-0.2-0.3-0.4-0.7-0.6-1s-0.3-0.8-0.4-1.2L46.5,129.4z"/>
		<path class="st2" d="M45.8,116.9l1.4,3.4l1.8-0.1l1,2.5L39.6,123l-1.1-2.6l7.6-7.2l1,2.5L45.8,116.9z M44.3,118.3l-2.6,2.3
			l3.5-0.2L44.3,118.3z"/>
		<path class="st2" d="M45.1,110.1l-9.9-0.2l-0.4-2.5l4.9-2.7l-5.5-1.2l-0.4-2.5l9.5-3.1l0.4,2.5l-5.5,1.6l5.9,1.5l0.1,1l-5.3,3
			l5.7,0L45.1,110.1z"/>
		<path class="st2" d="M36.4,87.6l-0.2,3l1.6,0.1l0.2-2.9l2.2,0.2L40,90.9l1.7,0.1l0.2-3l2.2,0.2l-0.4,5.6L33.8,93l0.4-5.6
			L36.4,87.6z"/>
		<path class="st2" d="M46.9,75.9L46,78.9l-4.3,1.4l3.6,1l-0.7,2.5l-9.5-2.6l1-3.8c0.1-0.5,0.3-1,0.6-1.3s0.6-0.6,0.9-0.8
			c0.3-0.2,0.7-0.3,1.1-0.3c0.4,0,0.8,0,1.2,0.1c0.7,0.2,1.3,0.5,1.6,1c0.4,0.5,0.5,1.1,0.5,1.8L46.9,75.9z M40.2,79.9l0.1-0.5
			c0.1-0.5,0.1-0.9,0-1.2s-0.4-0.5-0.8-0.6c-0.4-0.1-0.7,0-1,0.2s-0.5,0.5-0.6,1l-0.1,0.5L40.2,79.9z"/>
		<path class="st2" d="M43.5,70.7c-0.6-0.3-1.2-0.8-1.6-1.3c-0.4-0.5-0.7-1.1-0.9-1.8c-0.2-0.6-0.2-1.3-0.2-2
			c0.1-0.7,0.3-1.4,0.7-2.1c0.4-0.7,0.8-1.3,1.4-1.7c0.5-0.5,1.1-0.8,1.8-1s1.3-0.3,2-0.2c0.7,0.1,1.3,0.3,2,0.6
			c0.6,0.3,1.2,0.8,1.6,1.3c0.4,0.5,0.7,1.1,0.9,1.8c0.2,0.6,0.2,1.3,0.2,2c-0.1,0.7-0.3,1.4-0.7,2.1c-0.4,0.7-0.8,1.3-1.4,1.8
			s-1.1,0.8-1.8,1s-1.3,0.3-2,0.2C44.9,71.3,44.2,71.1,43.5,70.7z M44.8,68.4c0.3,0.2,0.7,0.3,1.1,0.3c0.4,0,0.7,0,1-0.1
			c0.3-0.1,0.6-0.3,0.9-0.5c0.3-0.2,0.5-0.5,0.7-0.8s0.3-0.7,0.3-1c0-0.4,0-0.7-0.1-1c-0.1-0.3-0.3-0.7-0.5-0.9
			c-0.2-0.3-0.5-0.5-0.9-0.7c-0.3-0.2-0.7-0.3-1.1-0.3c-0.4,0-0.7,0-1,0.1s-0.6,0.3-0.9,0.5c-0.3,0.2-0.5,0.5-0.7,0.8
			c-0.2,0.3-0.3,0.7-0.3,1s0,0.7,0.1,1s0.3,0.6,0.5,0.9C44.2,68,44.5,68.2,44.8,68.4z"/>
		<path class="st2" d="M55.4,60l-7.3-6.6l1.7-1.9l7.6,0.5l-4.5-4l1.7-1.9l7.3,6.6l-1.7,1.9l-7.6-0.5l4.5,4L55.4,60z"/>
		<path class="st2" d="M68.5,35.9l4.3,5l-0.8-6.6l1.8-0.9l4.6,4.8l-1.2-6.4l2.4-1.1l1.6,10.1l-2.3,1.1l-4.2-4.3l0.7,6l-2.3,1.1
			l-6.9-7.6L68.5,35.9z"/>
		<path class="st2" d="M91.2,30.2l-3,0.6l0.3,1.6l2.8-0.6l0.4,2.1L89,34.6l0.4,1.7l3-0.6l0.4,2.1l-5.5,1.2l-2-9.6l5.5-1.2L91.2,30.2
			z"/>
		<path class="st2" d="M99.4,27.3l0.3,7.6l3.1-0.1l0.1,2.2l-5.6,0.2l-0.4-9.8L99.4,27.3z"/>
		<path class="st2" d="M110.6,27.7l-0.9,7.6l3,0.4l-0.3,2.1l-5.6-0.7l1.2-9.7L110.6,27.7z"/>
		<path class="st2" d="M116.3,38.5l3.1-9.3l2.4,0.8l2.5,7.2l1.9-5.7l2.4,0.8l-3.1,9.3l-2.4-0.8l-2.5-7.2l-1.9,5.7L116.3,38.5z"/>
		<path class="st2" d="M138.4,40.1l-2.6-1.5L135,40l2.5,1.5l-1.1,1.9l-2.5-1.5l-0.9,1.5l2.6,1.5l-1.1,1.9l-4.8-2.8l5-8.4l4.8,2.8
			L138.4,40.1z"/>
		<path class="st2" d="M147,47.3c-0.1-0.4-0.2-0.7-0.3-0.9c-0.1-0.3-0.3-0.5-0.5-0.7c-0.2-0.2-0.5-0.3-0.8-0.4
			c-0.3,0-0.5,0.1-0.6,0.3c-0.1,0.1-0.2,0.3-0.2,0.4s0,0.3,0.1,0.5s0.2,0.4,0.3,0.5c0.1,0.2,0.2,0.4,0.3,0.6c0.4,0.8,0.7,1.4,0.6,2
			c0,0.6-0.3,1.2-0.8,1.7c-0.3,0.4-0.7,0.7-1.1,0.9s-0.8,0.3-1.2,0.3c-0.4,0-0.9-0.1-1.3-0.3c-0.5-0.2-0.9-0.5-1.4-0.9
			c-0.9-0.8-1.6-1.8-1.9-3.1l2.2-0.8c0.1,0.5,0.2,0.9,0.4,1.3c0.2,0.4,0.4,0.7,0.7,0.9c0.3,0.3,0.6,0.4,0.9,0.4
			c0.3,0,0.5-0.1,0.7-0.3c0.1-0.1,0.2-0.2,0.2-0.3c0-0.1,0-0.2,0-0.4c0-0.1-0.1-0.3-0.2-0.5c-0.1-0.2-0.2-0.4-0.4-0.7
			c-0.2-0.3-0.3-0.6-0.5-0.9s-0.3-0.6-0.3-0.9c0-0.3,0-0.6,0.1-1c0.1-0.3,0.3-0.7,0.6-1.1c0.3-0.4,0.7-0.6,1-0.8s0.8-0.3,1.2-0.3
			c0.4,0,0.8,0,1.2,0.2c0.4,0.2,0.8,0.4,1.2,0.7c0.4,0.3,0.7,0.7,1,1.2c0.3,0.4,0.6,0.9,0.8,1.4L147,47.3z"/>
		<path class="st2" d="M155.3,56.6c0-0.4,0-0.7-0.1-1c-0.1-0.3-0.2-0.5-0.4-0.7c-0.2-0.3-0.4-0.4-0.7-0.5c-0.3-0.1-0.5,0-0.7,0.1
			c-0.1,0.1-0.2,0.2-0.2,0.4s0,0.3,0,0.5c0,0.2,0.1,0.4,0.2,0.6c0.1,0.2,0.2,0.4,0.2,0.6c0.3,0.8,0.4,1.5,0.3,2.1
			c-0.1,0.6-0.5,1.1-1.1,1.6c-0.4,0.3-0.8,0.5-1.2,0.6c-0.4,0.1-0.9,0.1-1.3,0.1c-0.4-0.1-0.9-0.2-1.3-0.5c-0.4-0.3-0.8-0.6-1.2-1.1
			c-0.8-1-1.2-2.1-1.3-3.4l2.3-0.4c0,0.5,0,1,0.1,1.4c0.1,0.4,0.3,0.7,0.5,1c0.3,0.3,0.5,0.5,0.8,0.6c0.3,0,0.5,0,0.7-0.2
			c0.1-0.1,0.2-0.2,0.3-0.3c0.1-0.1,0.1-0.2,0.1-0.4c0-0.2,0-0.3-0.1-0.5s-0.1-0.4-0.2-0.7c-0.1-0.3-0.2-0.6-0.3-1
			c-0.1-0.3-0.1-0.7-0.1-1c0-0.3,0.1-0.6,0.2-1c0.2-0.3,0.4-0.6,0.8-0.9c0.4-0.3,0.8-0.5,1.2-0.6s0.8-0.2,1.2-0.1
			c0.4,0.1,0.8,0.2,1.2,0.4s0.7,0.6,1.1,1c0.3,0.4,0.6,0.8,0.8,1.3c0.2,0.5,0.4,1,0.5,1.6L155.3,56.6z"/>
		<path class="st2" d="M164.6,76.6c0.5-0.8,0.6-1.6,0.3-2.4c-0.1-0.4-0.3-0.7-0.6-0.9c-0.2-0.3-0.5-0.5-0.8-0.6
			c-0.3-0.1-0.6-0.2-1-0.2c-0.4,0-0.7,0-1.1,0.2c-0.4,0.1-0.7,0.3-0.9,0.6c-0.3,0.2-0.5,0.5-0.6,0.8s-0.2,0.6-0.2,1
			c0,0.3,0,0.7,0.2,1c0.3,0.8,0.9,1.3,1.7,1.7l-2.8,1l-0.2-0.2c-0.3-0.3-0.5-0.6-0.7-0.9s-0.3-0.6-0.4-0.9c-0.2-0.6-0.3-1.3-0.3-2
			c0-0.7,0.2-1.3,0.4-1.9c0.3-0.6,0.7-1.2,1.2-1.6c0.5-0.5,1.1-0.9,1.8-1.1c0.7-0.3,1.4-0.4,2.1-0.3c0.7,0,1.3,0.2,1.9,0.5
			c0.6,0.3,1.1,0.7,1.6,1.2c0.5,0.5,0.8,1.1,1,1.7c0.1,0.4,0.2,0.7,0.3,1.1c0.1,0.4,0.1,0.8,0.1,1.2L164.6,76.6z"/>
		<path class="st2" d="M167.9,87.2l-0.5-3l-1.6,0.3l0.5,2.8l-2.1,0.4l-0.5-2.8l-1.7,0.3l0.5,3l-2.1,0.4l-0.9-5.5l9.7-1.7l0.9,5.5
			L167.9,87.2z"/>
		<path class="st2" d="M160.9,92.9l9.8,0.4l-0.1,2.5l-6.2,4.5l6,0.2l-0.1,2.5l-9.8-0.4l0.1-2.5l6.2-4.5l-6-0.2L160.9,92.9z"/>
		<path class="st2" d="M166.1,112.7l-7.4-1.8l0.6-2.5l7.4,1.8l0.5-2l2.1,0.5l-1.6,6.5l-2.1-0.5L166.1,112.7z"/>
		<path class="st2" d="M153.6,124l1.3-2.9l4.4-0.6l-3.4-1.6l1.1-2.3l8.9,4.1l-1.6,3.6c-0.2,0.5-0.5,0.9-0.8,1.2
			c-0.3,0.3-0.7,0.5-1,0.6c-0.4,0.1-0.7,0.2-1.1,0.1c-0.4,0-0.8-0.1-1.1-0.3c-0.7-0.3-1.2-0.7-1.4-1.2s-0.3-1.1-0.2-1.8L153.6,124z
			 M160.9,121.1l-0.2,0.4c-0.2,0.5-0.3,0.9-0.2,1.2c0.1,0.3,0.3,0.6,0.6,0.7s0.7,0.2,1,0s0.6-0.5,0.8-0.9l0.2-0.4L160.9,121.1z"/>
		<path class="st2" d="M154.6,136.1l1.7-2.5l-1.3-0.9l-1.7,2.3l-1.8-1.2l1.6-2.3l-1.4-1l-1.7,2.5l-1.8-1.2l3.2-4.6l8,5.7l-3.2,4.6
			L154.6,136.1z"/>
	</g>
</g>
<g id="Layer_3">
</g>
</svg>
