<?xml version="1.0" encoding="utf-8"?>
<!-- Generator: Adobe Illustrator 25.4.1, SVG Export Plug-In . SVG Version: 6.00 Build 0)  -->
<svg version="1.2" baseProfile="tiny" xmlns="http://www.w3.org/2000/svg" xmlns:xlink="http://www.w3.org/1999/xlink" width="71px" height="57px" x="71px"
	 y="57px" viewBox="0 0 644.7 519.1" overflow="visible" xml:space="preserve">
<g id="Layer_2">
	<g>
		<path d="M402.9,357.5c-4.9,10.9-1.4,23.8,8.4,30.8c13.6,9.7,32.6,3.9,38.5-11.7c5.4-14.5,11-30.5,13-39.3
			c2-8.8,11.8-54.2,5.9-84.2c-4.1-20.6-18.1-71.3-60.1-97.9c-52.1-33-118.2-26-168.6,17.8c-36.6,31.9-60.4,76.8-65.5,123.3
			c-4.4,40.5,7.3,75.2,32.1,95.2c4.6,3.7,10.1,5.5,15.6,5.5c11.1,0,22.1-7.5,24.9-21.6c1.7-8.6-2.5-17-9.3-22.5
			c-11.2-9.1-16.4-28.3-14-51.3c3.7-34.2,21.4-67.5,48.7-91.2c33.4-29.1,76.4-34.3,109.5-13.3c21.1,13.4,33.5,42.7,38.1,65.7
			c2.4,12.2,0.1,38.9-5.6,63.4C412.4,335.3,407.4,347.5,402.9,357.5z"/>
		<path d="M163,428.4c11.1-7.9,13.7-23.4,5.8-34.6c-47.6-66.8-21.9-150.3,14.7-201.5c24-33.6,58.9-58.7,98.4-70.8
			c35.5-10.9,73.7-10.7,107.7,0.4c52.1,17.1,93.5,65.3,110.8,128.9c10.8,40,0.2,97.2-27.1,145.7c-6.7,11.9-2.5,27,9.4,33.8
			c3.8,2.2,8,3.2,12.1,3.2c8.7,0,17.1-4.5,21.6-12.6c26.5-47.1,48.8-120,31.7-183c-21.6-79.8-75.1-140.7-143.2-163
			c-43.6-14.3-92.5-14.6-137.7-0.7c-49.8,15.3-93.9,47-124.2,89.4c-46,64.5-77.5,171-14.7,259.1C136.4,433.8,151.9,436.4,163,428.4z
			"/>
		<path d="M613.9,331.6c-13.7,0-24.8,11.1-24.8,24.8c0,15.5-3.4,22.8-10.2,37.4c-2.4,5.2-5,10.8-7.7,17.2
			c-5.8,13.9-16.3,33-33.5,44.8c-27.3,18.7-61.5,5.9-79.4-3.4c-31.9-16.6-59-41.3-90-73.4c-0.5-0.5-0.9-1-1.4-1.5
			c13.4-20,21.4-40.2,23.6-60.2c2.7-24.4-2.2-74.7-40.1-90.1c-20.3-8.2-42.4-3.5-59.2,12.7c-15.9,15.3-25.4,36.7-26,58.8
			c-1,31,16,58,35.3,80.6c-11.9,11.5-25.6,22.2-41.4,33.8c-4.4,3.2-8.7,6.5-13,9.8c-23.9,18.1-44.5,33.8-70.7,36.2
			c-26.9,2.5-55.5-6.2-76.6-23.5c-30.2-24.7-45.4-63.4-45.1-114.9c0.1-13.7-10.9-24.8-24.6-24.9c-0.1,0-0.1,0-0.2,0
			c-13.6,0-24.7,11-24.8,24.6C3.6,386.9,25.5,440,67.3,474.2c31.4,25.6,72.4,38.2,112.6,34.4c40.3-3.8,69.9-26.3,96.1-46.1
			c4.1-3.1,8.2-6.2,12.4-9.3c14.7-10.8,30.8-23,46.1-37.7c29.3,30.1,61.7,60.6,101,81c23.7,12.3,47.5,18.5,69.8,18.5
			c22.1,0,42.8-6.1,60.5-18.2c21.5-14.8,39.2-37.8,51.2-66.6c2.4-5.7,4.7-10.7,6.8-15.3c7.7-16.4,14.9-31.9,14.9-58.4
			C638.7,342.7,627.6,331.6,613.9,331.6z M341.2,312c-1,8.9-4.1,18.1-9.2,27.7c-10.1-13.1-17.7-26.8-17.3-39.2
			c0.3-9.1,4.4-18.4,10.9-24.7c2.3-2.2,3.9-2.7,4.9-2.7c0.6,0,1,0.2,1.2,0.2C337.4,275.6,343.1,294.8,341.2,312z"/>
		<circle cx="37.1" cy="229.7" r="22.7"/>
		<path d="M70.1,176.9c12.5,0,22.7-10.1,22.7-22.7c0-12.5-10.1-22.7-22.7-22.7s-22.7,10.1-22.7,22.7
			C47.4,166.8,57.6,176.9,70.1,176.9z"/>
		<path d="M127.8,119.2c12.5,0,22.7-10.1,22.7-22.7c0-12.5-10.1-22.7-22.7-22.7c-12.5,0-22.7,10.1-22.7,22.7
			C105.1,109.1,115.3,119.2,127.8,119.2z"/>
		<circle cx="198.4" cy="52.3" r="22.7"/>
		<circle cx="261.5" cy="29.6" r="22.7"/>
		<circle cx="327.4" cy="26.2" r="22.7"/>
		<path d="M396.4,53.8c12.5,0,22.7-10.1,22.7-22.7c0-12.5-10.1-22.7-22.7-22.7c-12.5,0-22.7,10.1-22.7,22.7
			C373.7,43.6,383.9,53.8,396.4,53.8z"/>
		<path d="M523,117.4c12.5,0,22.7-10.1,22.7-22.7c0-12.5-10.1-22.7-22.7-22.7c-12.5,0-22.7,10.1-22.7,22.7
			C500.3,107.2,510.5,117.4,523,117.4z"/>
		<circle cx="572.4" cy="147.2" r="22.7"/>
		<path d="M581.6,215.2c0,12.5,10.1,22.7,22.7,22.7c12.5,0,22.7-10.1,22.7-22.7c0-12.5-10.1-22.7-22.7-22.7
			C591.8,192.6,581.6,202.7,581.6,215.2z"/>
		<circle cx="613.5" cy="281.1" r="22.7"/>
		<path d="M454.9,71.7c11.4,5.3,24.8,0.3,30.1-11c5.3-11.4,0.3-24.8-11-30.1c-11.4-5.3-24.8-0.3-30.1,11
			C438.6,53,443.5,66.5,454.9,71.7z"/>
	</g>
</g>

</svg>
